<svg width="23.000000" height="23.000000" viewBox="0 0 23 23" fill="none" xmlns="http://www.w3.org/2000/svg" xmlns:xlink="http://www.w3.org/1999/xlink">
	<desc>
			Created with Pixso.
	</desc>
	<defs/>
	<rect width="23.000000" height="23.000000" fill="#D3D1D8" fill-opacity="0"/>
	<path d="M20.25 11.09C20.17 10.41 19.84 9.78 19.33 9.31C18.82 8.84 18.15 8.56 17.44 8.53L17.44 8.33C17.44 7.76 17.33 7.19 17.1 6.67C16.88 6.14 16.55 5.67 16.13 5.26C15.72 4.86 15.22 4.54 14.68 4.32C14.14 4.11 13.56 3.99 12.97 4C11.78 4 10.64 4.45 9.81 5.26C8.97 6.08 8.5 7.18 8.5 8.33L8.5 8.53C7.8 8.58 7.14 8.86 6.64 9.33C6.14 9.8 5.82 10.42 5.74 11.09L5 17.68C5 18.56 5.36 19.41 6.01 20.03C6.66 20.65 7.53 21 8.44 21L17.55 21C18.46 21 19.33 20.65 19.98 20.03C20.63 19.41 20.99 18.56 21 17.68L20.25 11.09ZM9.81 8.33C9.81 7.93 9.89 7.53 10.05 7.16C10.21 6.79 10.44 6.45 10.73 6.17C11.03 5.89 11.38 5.66 11.76 5.51C12.14 5.35 12.55 5.27 12.97 5.27C13.38 5.27 13.79 5.35 14.18 5.51C14.56 5.66 14.91 5.89 15.2 6.17C15.49 6.45 15.73 6.79 15.89 7.16C16.05 7.53 16.13 7.93 16.13 8.33L16.13 8.52L9.81 8.52L9.81 8.33ZM10.43 12.84C10.33 12.84 10.22 12.82 10.13 12.78C10.03 12.74 9.94 12.68 9.87 12.61C9.8 12.54 9.74 12.45 9.7 12.36C9.66 12.27 9.64 12.17 9.64 12.07C9.64 11.97 9.66 11.87 9.7 11.77C9.74 11.68 9.8 11.59 9.87 11.52C9.94 11.45 10.03 11.39 10.13 11.36C10.22 11.32 10.33 11.3 10.43 11.3C10.54 11.3 10.64 11.32 10.74 11.36C10.83 11.39 10.92 11.45 10.99 11.52C11.07 11.59 11.13 11.68 11.17 11.77C11.21 11.87 11.23 11.97 11.23 12.07C11.23 12.17 11.21 12.27 11.17 12.36C11.13 12.45 11.07 12.54 10.99 12.61C10.92 12.68 10.83 12.74 10.74 12.78C10.64 12.82 10.54 12.84 10.43 12.84ZM15.56 12.84C15.46 12.84 15.35 12.82 15.26 12.78C15.16 12.74 15.07 12.68 15 12.61C14.92 12.54 14.86 12.45 14.82 12.36C14.78 12.27 14.76 12.17 14.76 12.07C14.76 11.97 14.78 11.87 14.82 11.77C14.86 11.68 14.92 11.59 15 11.52C15.07 11.45 15.16 11.39 15.26 11.36C15.35 11.32 15.46 11.3 15.56 11.3C15.66 11.3 15.77 11.32 15.86 11.36C15.96 11.39 16.05 11.45 16.12 11.52C16.19 11.59 16.25 11.68 16.29 11.77C16.33 11.87 16.35 11.97 16.35 12.07C16.35 12.17 16.33 12.27 16.29 12.36C16.25 12.45 16.19 12.54 16.12 12.61C16.05 12.68 15.96 12.74 15.86 12.78C15.77 12.82 15.66 12.84 15.56 12.84Z" fill="#D5D5D9" fill-opacity="1.000000" fill-rule="nonzero"/>
	<circle cx="10.500000" cy="12.500000" r="1.500000" fill="#9796A1" fill-opacity="1.000000"/>
	<circle cx="15.500000" cy="12.500000" r="1.500000" fill="#9796A1" fill-opacity="1.000000"/>
</svg>
